<svg xmlns="http://www.w3.org/2000/svg" class="file-glyph" viewBox="0 0 54 70" aria-hidden="true"><path d="M4 1h34l15 15v50a3 3 0 0 1-3 3H4a3 3 0 0 1-3-3V4a3 3 0 0 1 3-3Z" fill="#238451"/><path d="M38 1v15h15Z" fill="#82bb9d"/><path d="M27 18v42M35 18v42M25 22h21M25 30h21M25 38h21M25 46h21M25 54h21" stroke="#fff" stroke-opacity=".22" stroke-width="1"/><rect x="1" y="24" width="30" height="31" rx="2" fill="#20774a"/><text fill="#fff" text-anchor="middle" font-family="Arial,sans-serif" font-size="23" font-weight="700" x="16" y="45">X</text></svg>